<svg xmlns="http://www.w3.org/2000/svg" xmlns:xlink="http://www.w3.org/1999/xlink" id="Layer_1" x="0px" y="0px" viewBox="0 0 200 200" style="enable-background:new 0 0 200 200;" xml:space="preserve"><style type="text/css">	.st0{fill:#FFFFFF;fill-opacity:0;}	.st1{fill:#FF095F;}	.st2{fill:#131016;}</style><rect x="0.4" y="0" class="st0" width="200" height="200"></rect><path class="st1" d="M157.2,22.6c-8.7-5.3-18.1-9.2-27.9-11.7c-3.8-0.6-7.7-0.9-11.5-0.8c0,0-52.3,4.5-115.3,93.2 c3.9,3.7,8.2,7,12.9,9.6c4.3-8,40.2-68.5,144.4-87.7C159,24.3,158.1,23.4,157.2,22.6z"></path><path class="st2" d="M32.2,66.4c17.5-19,33.4-31.6,46.7-40c2.7-6.9,6.1-18.1,5.7-19.7c0,0-21.2,8.7-47.2,36.3c0,0.5,0,0.8,0,0.9 C37.7,49.6,35.2,59,32.2,66.4z"></path><path class="st1" d="M176.1,38.2l-0.9-0.7c0,0-98.1,10.8-154,79c4.2,1.9,8.5,3.6,12.9,5.1c8.5-10.9,49.4-54.2,161.7-47 c0,0-0.4-2.2-1.3-5.6C190.4,57.7,184.2,47.2,176.1,38.2z"></path><path class="st2" d="M154.5,41.2c3.4-8.3,3.7-9.1,5.3-16.1c-24.1,4.2-47.4,11.8-69.4,22.4c-6.2,9.7-13.2,18.9-20.8,27.5 C101,55.5,133.9,45.8,154.5,41.2z"></path><path class="st1" d="M0.5,93.1c0,0-8.3-61.8,43.5-78.3c0,0,13.7-4,40.7-8.1C84.6,6.7,39.8,25.1,0.5,93.1z"></path><path class="st1" d="M0.5,93.1c0,0-8.3-61.8,43.5-78.3c0,0,13.7-4,40.7-8.1C84.6,6.7,39.8,25.1,0.5,93.1z"></path><path class="st1" d="M148.4,134.4c-20.9-9.5-44.5-11-66.4-4.2c0,0-6.2,16.5,12.4,22.7c10.1,3.3,12.9,9.7,13.3,14.9 c0.4,3.9-0.6,7.8-2.8,11.1c-6.4,9.6-11.9,12.5-13.3,13.9c0,0-1.4,1.4,0.7,1.4s8.3-2.1,8.3-2.1s69.1-25.4,55.6-50.6 C154.5,138.4,151.8,135.9,148.4,134.4z"></path><path class="st1" d="M65.7,129.1c75.2-37.2,121.8-0.9,121.8-0.9C200,117.9,200,93.1,200,93.1c-94.8-16.7-148,19.8-155.6,31.5 L65.7,129.1z"></path><path class="st2" d="M185.3,91L185.3,91c3.6-5.2,6-6.9,10.5-16.4c-18.5-1.3-37-1.1-55.4,0.7c-8.8,6.4-18,12.1-27.7,17.1 C132.7,88.7,156.9,87.4,185.3,91z"></path><path class="st2" d="M104.8,126.1L104.8,126.1c15-0.8,30,2.1,43.6,8.3c3.3,1.4,6,3.9,7.8,7.1c0.1,0.2,0.2,0.4,0.3,0.6 c10.9-3.3,21.3-7.9,31.1-13.9c0,0-11.4-8.9-32.1-13.4C138.9,120.1,122,123.8,104.8,126.1z"></path></svg>